<svg xmlns="http://www.w3.org/2000/svg" viewBox="0 0 512 512" role="img" aria-label="Pachamanca Sabor a Mamá">
  <defs>
    <linearGradient id="g" x1="0" y1="0" x2="1" y2="1">
      <stop offset="0" stop-color="#b91c1c"/>
      <stop offset="1" stop-color="#7f1d1d"/>
    </linearGradient>
  </defs>
  <rect width="512" height="512" rx="112" fill="url(#g)"/>
  <path d="M92 283c11-75 77-132 164-132s153 57 164 132H92Z" fill="#f7e8c8"/>
  <path d="M75 283h362c-8 81-78 145-181 145S83 364 75 283Z" fill="#4a2518"/>
  <path d="M127 283c20 60 67 99 129 99s109-39 129-99" fill="none" stroke="#d97706" stroke-width="20" stroke-linecap="round"/>
  <path d="M173 134c-21-26 13-45 0-70M256 125c-21-26 13-45 0-70M339 134c-21-26 13-45 0-70" fill="none" stroke="#fff7ed" stroke-width="18" stroke-linecap="round"/>
  <circle cx="181" cy="247" r="26" fill="#eab308"/>
  <circle cx="256" cy="229" r="30" fill="#92400e"/>
  <circle cx="332" cy="248" r="25" fill="#65a30d"/>
</svg>
